<svg xmlns="http://www.w3.org/2000/svg" width="145" height="76" viewBox="0 0 145 76">
    <g fill="none" fill-rule="evenodd">
        <g fill-rule="nonzero">
            <g>
                <g>
                    <g>
                        <g fill="#FFF">
                            <path d="M49.266 7.173l-1.178.904-.883.713c-.186.148-.285.38-.263.618v2.469c-.005.215-.167.393-.38.415-.093.01-.189.01-.283 0H43.87c-.083.01-.168.01-.252 0V7.14c-.494.33-.926.638-1.325.936l-.978.799c-.123.09-.19.24-.18.393v2.384c.019.16-.032.32-.138.44-.107.12-.26.189-.419.188h-2.881V7.162l-1.231.926-.862.702c-.193.142-.294.379-.263.618V11.6c0 .532-.158.702-.652.702h-3.303c-.077.01-.155.01-.231 0v-8.28c-.8.618-1.589 1.214-2.377 1.778-.137.118-.2.3-.169.479v9.471h6.31c.355-.01.707-.054 1.053-.127.637-.11 1.16-.57 1.356-1.192v-.277 1.5s.18.075.2.075h3.818c.799 0 1.507-.52 1.757-1.288l.126-.117v.67c-.032.24-.01.484.063.714h3.46c.248-.006.495-.038.736-.096.753-.151 1.34-.749 1.483-1.511.17-.549.27-1.118.295-1.692V7.407c.01-.078.01-.156 0-.234zM86.678 7.095L85.338 8l-1.006.735c-.216.129-.335.371-.302.618v2.216c0 .693-.14.917-.811.917h-2.097l-.065-.33c-.082-.639-.426-1.217-.951-1.599-.465-.352-.92-.746-1.384-1.119l-1.081-.852.81-.597c1.287-.863 2.573-1.705 3.86-2.61-.088-.01-.175-.027-.26-.054h-3.026c-.213.01-.417.084-.584.213l-3.61 2.462-.541.394-.26.224c.067.07.14.134.217.192l3.005 2.312c.11.083.214.172.313.266.154.114.219.31.162.49-.162.448-.81.47-.864.47-2.573 0-6.875.117-9.437.117h-.12c-.235.038-.477-.028-.659-.182-.18-.156-.282-.381-.28-.618V7.02c-.541.341-1.082.661-1.492.98l-1.211.864c-.131.11-.196.279-.173.447v3.197c.009.387.056.773.14 1.151.14.884.771 1.616 1.633 1.897.453.143.929.208 1.405.192h10.248c.432 0 .863-.043 1.286-.128 1.06-.194 1.982-.836 2.519-1.758 0-.096 0-.203.065-.299v2.131h1.848c.62.036 1.24.036 1.86 0 1.12-.03 2.03-.9 2.097-2.003.099-.556.15-1.12.15-1.684v-4.54c-.046-.118-.068-.245-.064-.372zM16.742 5.453c-.242 0-.477.09-.66.254l-3.05 2.384-.325.286-.356.318.265.265 2.51 2.235c.12.1.23.213.325.339.108.135.146.317.102.487-.05.168-.17.304-.325.371h-3.13c-.082 0-.153-.138-.153-.159v-8.21c-.59.138-.437.222-.56.307-.589.466-1.26.932-1.859 1.388-.197.126-.313.353-.305.593v9.44h5.783c.308 0 .615-.035.915-.107 1.057-.256 1.918-1.054 2.286-2.119.41-1.008.132-2.177-.68-2.87-.194-.16-.356-.329-.53-.488l-1.534-1.43.691-.583.356-.264 1.016-.805c.336-.255.671-.509 1.017-.795.362-.23.703-.496 1.016-.795h-2.815v-.042zM90.619 18.99l2.556 1.972 2.612-1.914c-.75-.604-1.76-1.368-2.556-1.995l-2.612 1.938zM98.349 7.542V7.26l-.156.063-1.195.788-1.195.798c-.128.087-.2.23-.19.378v2.301c0 .42-.167.62-.647.662H92.275V4.023l-.223.115c-.837.515-1.597 1.051-2.423 1.576-.196.104-.313.304-.301.515v9.456l4.678.063h.837c.344.01.688-.011 1.027-.063 1.19.062 2.222-.766 2.345-1.881.102-.488.155-.984.156-1.481V8.12c-.011-.21-.022-.41-.022-.578zM51.971 15.75h6.286c.34 0 .677-.043 1.006-.127.613-.107 1.123-.558 1.328-1.176.08-.241.14-.49.18-.741.111-.963.152-1.934.121-2.903V7.254l-.241.148-.875.7c-.211.19-.432.36-.644.53-.4.255-.615.74-.543 1.228.05.615 0 1.24 0 1.865 0 .392-.13.55-.463.582h-3.58c-.096.021-.196.021-.292 0V4.023c0 .074-.13.095-.17.127-.665.52-1.308 1.06-2.012 1.59-.15.114-.23.303-.212.497v9.185c.053.103.09.213.111.328zM5.729 10.366L2.894 7.638 1.45 6.358.304 5.327v2.525c-.034.33.105.652.36.842l2.549 2.324c.123.108.237.228.34.359.075.097.106.224.085.348-.026.126-.104.233-.213.292-.148.103-.314.175-.488.213-.382 0-2.76-.101-2.76-.079v3.592c.084.01.17.01.254 0H3.16c.296-.003.592-.041.88-.112 1.093-.237 1.997-1.045 2.4-2.144.428-1.093.141-2.353-.711-3.12zM25.925 6.629l-1.151.972-.945.85c-.132.125-.198.314-.175.503v2.236c.02.14.02.284 0 .424-.062.313-.154.548-.431.582h-2.374v3.554h3.124c1.027-.1 1.674-.514 1.92-2.057.083-.535.124-1.077.124-1.62v-5.03c-.007-.125-.024-.248-.051-.37l-.041-.044zM58.217 18.875l-1.812-1.799c-.694.6-1.309 1.246-2.013 1.788l-1.813-1.81c-.664.668-1.359 1.256-2.013 1.948l1.953 1.96 2.004-1.799 1.802 1.8 1.943-1.8 1.822 1.8 1.289-1.154.815-.715-.795-.738-1.249-1.234-1.933 1.753zM84.159 2.037L86.69 4.023 89.327 2.113 86.749.114z" transform="translate(-1160 -872) translate(1160 872) translate(0 .652) translate(.116) translate(0 18.78)"/>
                            <path d="M16.973 4.026h-1.495c-.148-.01-.296.01-.436.06-.305.145-.586.339-.831.574-.743.544-1.485 1.097-2.169 1.651-.099.07-.227.191-.237.282v1.339l5.168-3.906z" transform="translate(-1160 -872) translate(1160 872) translate(0 .652) translate(.116) translate(0 18.78)"/>
                        </g>
                        <g>
                            <g fill="#F1C40F">
                                <g>
                                    <path d="M21.794.767v.11H.194V.837c.005.052.005.105 0 .157h21.557v.11H.221v-.052c.181 1.235.533 3.563.992 6.427.687-.14 1.237-.647 1.424-1.314h-.096v-.383c-.38-.3-.617-.741-.656-1.22-.07-.583-.533-1.466-.533-1.665 0-.2.41.136.71.383.303.314.585.647.842.999.258-.353.541-.687.848-.999.304-.247.715-.604.715-.383 0 .22-.453 1.109-.533 1.666-.036.475-.267.916-.64 1.219v.389h-.118c.2.766.889 1.31 1.691 1.335h.112c.795-.042 1.474-.58 1.686-1.335h-.133v-.39c-.371-.304-.602-.744-.64-1.218-.07-.584-.534-1.467-.534-1.666 0-.2.41.136.72.383.304.314.586.647.843.999.257-.352.539-.685.843-.999.304-.247.72-.604.72-.383 0 .22-.475 1.109-.533 1.666-.06.557-.352 1.119-.678 1.219v.389c0 .11.534 1.366 1.632 1.335h.22c1.12 0 1.6-1.225 1.6-1.335h.608c.22.753.897 1.287 1.69 1.335h.188c.804-.016 1.496-.565 1.685-1.335h.576c.209.76.893 1.3 1.692 1.335h.112c.798-.032 1.482-.574 1.685-1.335h.576c.168.624.65 1.12 1.275 1.314l1.1-7.358H.065c.01.221.04.441.09.657L21.795.767zM4.19 2.87l-.667.563-.176.157c-.024-.212-.207-.373-.424-.373-.218 0-.4.16-.424.373l-.166-.147-.661-.594c-.043-.053-.064-.12-.059-.189.014-.064.057-.119.117-.147.064-.032.14-.032.203 0 .206.209.385.442.534.694l.074-.053c-.17-.238-.315-.494-.432-.762-.008-.104.055-.201.155-.236.098-.041.212-.008.272.079.105.269.178.55.219.835h.042c-.086-.286-.127-.584-.122-.883 0-.184.144-.178.224-.284h.08c.08.106.218.1.224.284 0 .281-.042.56-.123.83h.059c.038-.284.111-.563.218-.83.06-.091.177-.127.278-.084.098.04.157.139.144.242-.12.268-.27.522-.448.757h.042c.15-.25.329-.481.534-.689.062-.032.135-.032.197 0 .064.027.111.081.128.147.033.105.002.22-.08.295l.038.015zm4.054 0l-.645.563-.182.157c0-.229-.189-.415-.421-.415-.233 0-.422.186-.422.415l-.128-.147-.677-.594c-.041-.054-.062-.121-.059-.189.02-.066.069-.12.133-.147.062-.032.136-.032.198 0 .204.21.383.443.533.694l.07-.053c-.175-.236-.32-.492-.432-.762-.01-.1.05-.194.145-.23.095-.037.203-.008.265.073.107.269.182.55.224.835h.059c-.09-.286-.133-.584-.128-.883 0-.184.144-.178.23-.284h.058c.085.106.219.1.23.284 0 .282-.044.562-.129.83h.06c.042-.283.116-.561.218-.83.061-.094.184-.13.288-.084.1.036.16.138.144.242-.11.267-.252.521-.422.757h.043c.147-.251.327-.483.534-.689.06-.035.135-.04.2-.013.065.027.113.082.13.15.023.115-.028.231-.128.294l.011.026zm1.824-.33c.206.207.385.438.534.688l.064-.074c-.175-.234-.32-.488-.432-.757-.017-.104.043-.205.144-.241.1-.038.212-.003.272.084.102.268.175.547.219.83h.058c-.086-.29-.13-.591-.128-.893 0-.184.144-.174.23-.284h.074c.086.11.22.1.23.284 0 .283-.043.565-.128.835h.058c.043-.285.116-.565.22-.835.064-.08.174-.11.271-.074.1.038.159.138.144.242-.11.268-.25.522-.421.757h.042c.149-.25.328-.482.534-.689.064-.029.138-.029.203 0 .063.03.11.085.128.153.005.068-.016.135-.059.189l-.656.573-.176.157c0-.229-.189-.415-.422-.415-.232 0-.421.186-.421.415l-.197-.042-.64-.599c-.057-.057-.087-.136-.08-.215.018-.061.063-.111.122-.137.058-.032.129-.032.187 0l.026.047zm2.065 2.044c-.038.466-.265.898-.63 1.198v.389h-.79v-.39c-.335-.094-.597-.635-.671-1.218-.075-.584-.534-1.467-.534-1.666 0-.2.416.136.71.383.307.312.59.646.848.999.257-.352.539-.685.843-.999.304-.247.72-.604.72-.383 0 .22-.432 1.088-.501 1.66l.005.027zm1.995-2.045c.207.206.386.438.534.689l.058-.074c-.17-.235-.314-.49-.427-.757-.02-.104.038-.208.14-.247.1-.039.214-.001.271.09.107.267.18.546.219.83h.059c-.087-.286-.128-.584-.123-.883 0-.184.144-.173.224-.284h.08c.085.11.219.1.224.284 0 .283-.042.564-.123.836h.06c.04-.286.113-.566.218-.836.06-.085.172-.12.272-.084.095.042.153.14.144.242-.112.268-.255.522-.427.757h.07c.15-.25.329-.48.533-.689.063-.028.135-.028.197 0 .064.03.113.086.134.153 0 .068-.022.135-.064.189l-.673.688-.176.158c-.024-.213-.206-.374-.424-.374-.217 0-.4.161-.424.374l-.17-.158-.683-.594c-.043-.053-.064-.12-.059-.189.017-.069.064-.126.128-.157s.139-.031.203 0l.005.036zm2.038 2.045c-.05.469-.285.9-.656 1.198v.389h-.79v-.39c-.39-.295-.637-.736-.683-1.218-.069-.584-.533-1.467-.533-1.666 0-.2.416.136.71.383.308.31.594.642.853.994.257-.352.539-.686.843-.999.304-.247.72-.604.72-.384 0 .221-.4 1.094-.464 1.666v.027zm1.995-2.066c.204.21.383.443.534.694l.069-.058c-.175-.236-.32-.492-.432-.762-.01-.1.05-.194.145-.23.095-.037.204-.008.266.073.106.269.181.55.224.835h.058c-.085-.27-.128-.552-.128-.835 0-.06.023-.12.064-.163.044-.044.104-.068.166-.069h.074c.062 0 .122.025.166.069.041.044.064.102.064.163 0 .283-.043.564-.128.835h.058c.044-.285.117-.565.22-.835.062-.093.185-.127.287-.08.1.035.16.134.144.237-.116.27-.262.525-.437.762h.042c.149-.252.328-.485.534-.694.064-.028.138-.028.203 0 .063.03.11.086.128.153.005.068-.016.135-.059.19l-.656.582-.176.158c-.024-.213-.207-.373-.424-.373-.218 0-.4.16-.424.373l-.192-.1-.662-.594c-.043-.053-.064-.12-.059-.189.02-.066.07-.12.134-.147.062-.032.135-.032.197 0v.005zm2.027 2.04c-.037.48-.275.923-.656 1.224v.389h-.79v-.39c-.374-.303-.608-.742-.65-1.218-.064-.584-.534-1.467-.534-1.666 0-.2.411.136.715.383.302.312.58.646.832.999.258-.352.54-.685.843-.999.304-.247.71-.604.71-.383 0 .22-.395 1.093-.475 1.666l.005-.006z" transform="translate(-1160 -872) translate(1160 872) translate(0 .652) translate(.116) translate(104.633) translate(.198 .652) translate(.403)"/>
                                    <path d="M20.428 8.146h.235l.059-.39c-.788-.139-1.416-.725-1.6-1.492-.19.924-1.018 1.585-1.974 1.577h-.091c-.96.013-1.792-.65-1.98-1.577-.186.923-1.013 1.585-1.968 1.577h-.107c-.96.015-1.793-.649-1.979-1.577-.188.922-1.014 1.583-1.968 1.577h-.08C8.017 7.854 7.186 7.19 7 6.264c-.19.924-1.017 1.585-1.974 1.577H4.91c-.958.013-1.789-.65-1.974-1.577-.17.825-.846 1.456-1.691 1.577l.048.341h19.109l.026-.036zM20.604 8.44L1.357 8.44 1.512 9.428 20.444 9.428 20.588 8.44z" transform="translate(-1160 -872) translate(1160 872) translate(0 .652) translate(.116) translate(104.633) translate(.198 .652) translate(.403)"/>
                                </g>
                                <path d="M30.194 20.7c-.415-.584-.963-1.065-1.6-1.403-1.014-.525-1.067-.141-1.6.479-.332.326-.486 0-.716-.174-.229-.173-.672-.683-1.701.253 0 0 .592 1.213 1.323 1.156.4.03.779-.176.965-.526.17-.2.608-.772.795-.83.46-.185.99-.014 1.248.404 0 0 .47-.162 1.286.642zM30.567 21.226c-.377-.104-.78-.049-1.115.153-.331.201-.564.528-.645.903-.224.736-.581 1.178-1.302 1.052-.464-.142-.282-.673 0-.83.14-.068.29-.113.443-.132 0 0 1.083-1.876 2.62-1.146z" transform="translate(-1160 -872) translate(1160 872) translate(0 .652) translate(.116) translate(104.633) translate(.198 .652)"/>
                                <path d="M29.394 21.636s1.067-.2 1.526.284c.285.32.46.721.501 1.145.082-.282.18-.559.293-.83.08-.115.187-.473 0-.567-.346-.132-.464.094-.656 0-.505-.317-1.147-.329-1.664-.032z" transform="translate(-1160 -872) translate(1160 872) translate(0 .652) translate(.116) translate(104.633) translate(.198 .652)"/>
                                <path d="M31.165 23.15s-.277-1.666-1.504-1.272c-.497.173-.507.462-.7.946-.134.308-.379.556-.687.699.98-.03 1.956-.155 2.912-.373h-.021zM30.637 24.463h-.267s-.384-.74-2.214-.089c-.304.084-.421 1.44 1.296 1.156.331-.084.795-.83.795-.83l.267.068-.57.72s.1 1.083-.689 1.183c-.79.1-.795-.526-.795-.526l.096-.09s-1.69-1.024-.736-1.833c.955-.81 2.289-.258 3.569-.92l-.752 1.161z" transform="translate(-1160 -872) translate(1160 872) translate(0 .652) translate(.116) translate(104.633) translate(.198 .652)"/>
                                <path d="M29.965 24.505s0 .384-.32.442c0 0 0-.526-1.403-.415 0 0 .442-.505 1.723-.027zM28.167 20.596s-.187.488.117.525c.128-.096.177-.263.12-.41-.056-.149-.205-.243-.365-.231-.145-.011-.287.04-.39.142-.102.1-.155.24-.144.383.033.149.146.268.294.31.147.043.305.005.416-.1 0 0-.614-.246-.048-.62z" transform="translate(-1160 -872) translate(1160 872) translate(0 .652) translate(.116) translate(104.633) translate(.198 .652)"/>
                                <path d="M28.727 20.443c-.315-.83-1.398-.525-1.691.384-.293.909.32 1.77 1.238.835.426-.378 1.098-1.024 1.91-.735-.343-.426-.906-.615-1.441-.484h-.016zm-.533.936c-.609.588-.96.241-.982.084-.046-.3.041-.605.24-.836.288-.289.715-.657 1.174.095.26-.153.583-.153.843 0 0 0-.534-.126-1.275.657z" transform="translate(-1160 -872) translate(1160 872) translate(0 .652) translate(.116) translate(104.633) translate(.198 .652)"/>
                                <path d="M28.47 35.83l-1.029-8.502c-.424 0-.844-.08-1.237-.237 0 0 .405-.105.426-.441 0 0-1.152.1-1.355-.473.137.026.277-.005.39-.084.112-.08.188-.198.213-.332-.273.054-.557-.015-.773-.189-.216-.174-.34-.435-.336-.71.195.115.446.065.581-.115-.41-.046-.747-.34-.843-.736.38-.035.707-.28.843-.63 0 0-1.275.247-.656-1.183.17-.355.39-.684.656-.977-.628-.229-1.051-.812-1.067-1.472.21-.28.48-.512.79-.678.366-.236.84-.236 1.205 0 .347.29.534.631.806.216.14-.237.32-.448.533-.625-1.372-.66-3.005-.507-4.225.399-2.347 1.508-3.969 4.682-4.438 7.452-.47 2.77 2.176 3.679 3.382 4.204 1.206.526 3.2 1.766 2.091 4.273 1.379.118 2.739.392 4.055.814l-.011.027zm-7.131-8.082c-.48-2.185-.019-4.469 1.275-6.306 0 0-1.692 3.857-.646 6.227.532 1.34 1.599 2.405 2.95 2.948 0 0-2.966-.63-3.58-2.869z" transform="translate(-1160 -872) translate(1160 872) translate(0 .652) translate(.116) translate(104.633) translate(.198 .652)"/>
                                <path d="M31.736 37.58h-.299c-.913-.51-1.963-.734-3.009-.64 0 0-.437-.642-3.505-.794-1.245.015-2.487-.114-3.702-.384 0 0-1.542-.64-2.24.342-.7.983 1.067 1.823 1.69 1.923l7.79.084s-.065-.325-1.9-.525-4.16-.242-4.769-.226c-.608.016-1.307.179-1.6-.378-.294-.558-.128-.778.442-.794.352-.007.7.07 1.014.226.846-.005 1.692.037 2.534.126 1.194.074 2.374.289 3.515.641.667.32 1.489 0 2.534.358.537.167 1.03.45 1.44.83h.598s-.219-.6 0-.699c.219-.1.587.215.779.373l.085-.163s.753.373.929.83H20.02s-2.24-.83-2.075-2.296c.165-1.466 1.93-1.666 2.742-1.482.81.184 1.408.583 1.813.583.406 0 4.658.221 6.103.957.594.081 1.195.097 1.793.047l.186-.063c.138-.205.36-.34.609-.368.246-.021.488.074.65.258 0 0 .577-.158.849.042.238.276.43.589.57.925.298-.026.587.104.763.341.22.346.466.674.736.983h-.533c-.316-.402-.652-.788-1.008-1.156-.331-.3-.534-.683-.78-.725-.245-.043.289.672.289.672l-.955-.83s-.315-.279-.437.105c-.123.384.853.783.4.878zM26.46 21.226c-.143.947-.06 1.913.245 2.822.265.897.829 1.68 1.6 2.223-.238.488-.8.735-1.328.584.132-.084.23-.21.278-.358.112-.425.069-.415-.262-.33-.33.083-.912.304-1.067-.07 0 0 .582 0 .656-.83 0 0-.928.342-1.344-.1 0 0 1.067-.21.923-.835 0 0-.944.152-1.067-.242 0 0 .752-.525.662-1.082 0 0-.806.073-.849-.042-.118-.55.12-1.114.598-1.42.287-.181.615-.291.955-.32zM.379 38.979H35.812V40.077H.379z" transform="translate(-1160 -872) translate(1160 872) translate(0 .652) translate(.116) translate(104.633) translate(.198 .652)"/>
                                <path d="M21.525 30.97c-3.515-1.351-3.382-3.847-2.992-6.401l2.272-14.883H1.963c1.44 8.934 3.526 21.073 4.481 22.54 3.201 6.563 8.925 6.306 8.925 6.306h3.772s-2.881-1.156-2.097-2.964c.784-1.808 2.326-1.66 3.548-1.409 1.221.253 2.603 1.125 3.382-.247.779-1.371-2.449-2.943-2.449-2.943zM15.21 15.024s.848.641.747 1.156c-.101.515-.459.526-.848.667-.56.21-1.073.527-1.51.93-.064.058-.203-.383-.848-.583l1.803-2.144s.405-.336.656-.026zm-2.225 4.32l-1.013-.048s-.347-.178-.422-1.05c-.074-.873-.1-1.136 1.03-.794 1.131.341.688.835.534 1.135-.107.243-.15.509-.129.773v-.016zm2.54 12.712c-.998.179-.896-.147-.966-.373-.095-.283.032-.591.299-.73.542-.101 1.088-.173 1.638-.216.074.316.144.662.213 1.051-.386.123-.782.213-1.184.268zM16.74 32c.048.358.101.741.133 1.151l-1.12.232c-1.136.226-.917-.174-1.008-.473-.041-.13-.023-.269.048-.384.07-.117.19-.196.325-.215.235-.058 1.275-.242 1.6-.31h.022zm-1.6-1.26c-.667.104-.736 0-.849-.269-.112-.268-.26-.693.086-.783.347-.09 1.414-.252 1.76-.3.128.36.236.724.326 1.094-.214.031-.79.157-1.34.252l.017.005zm-.438-1.31c-.533.1-.843.1-1.125-.262-.283-.363-.176-.578.144-.662.32-.084 1.488-.352 1.76-.41.193.338.362.69.507 1.05-.256.07-.848.216-1.275.295l-.01-.01zm-1.104-1.092c-.342.043-.677-.121-.848-.416-.075-.142-.219-.473.197-.583.416-.11 1.494-.284 1.84-.342.091.127.177.242.246.353l.07.105c.1.152.207.325.325.525-.31.053-1.425.294-1.83.342v.016zm-.432-1.157c-.457.173-.976.037-1.286-.336-.245-.42.086-.573.331-.62l1.691-.32c.277.32.534.609.73.877l-1.466.4zm0-1.376c-.534.136-1.691.525-2.054.126-.363-.4-.197-.642.09-.684.289-.042 1.286-.304 1.692-.425l.763.835c-.175.06-.353.109-.534.148h.043zm-1.355-.946c-.294.073-1.318.525-1.691 0-.374-.526-.176-.568.128-.678.304-.11 1.259-.347 1.69-.447l.188.184.64.667c-.31.074-.768.216-.998.274h.043zm-1.6-.915c-.72.137-.849 0-1.067-.31-.22-.31-.251-.525.08-.61l1.568-.357c.267.312.55.61.848.893-.467.15-.943.273-1.424.368l-.006.016zm-.155-1.345c-.95.21-1.34.326-1.6-.1-.385-.657.175-.615.175-.615l1.6-.2c.12.298.281.578.48.83l-.655.085zm.08-1.13l-1.649.131c-.533 0-.73-.525-.741-1.245-.01-.72.048-.836.496-.557.556.4 1.19.683 1.862.83v.194c-.035.225-.024.453.032.673v-.026zm0-.972c-.699-.293-1.355-.675-1.953-1.135-.234-.216-.282-.4.07-.83.352-.432.736-.69.784-.584.159.29.337.569.533.835.28.377.62.705 1.009.973-.226.21-.38.483-.443.783v-.042zm-.267-1.85c-.475-.7-.448-.957-.272-1.099.399-.293.89-.44 1.387-.415.608.069.25.431.288.988.059.414.208.81.438 1.162h-.273c-.257.033-.505.12-.725.257-.325-.247-.613-.54-.854-.867l.011-.026zm3.884-4.536c.715.232.917.431.65.83l-1.813 2.134c-.272-.103-.564-.144-.854-.12.16-.463.747-2.187.848-2.497.102-.31.438-.525 1.147-.31l.022-.037zm-2.55-.22c.624-.042 1.333 0 1.243.31l-.16.43-.843 2.308c-.356-.121-.743-.121-1.1 0v-2.496c0-.3.262-.484.886-.526l-.026-.026zm-2.892.667c.448-.268 1.627-.83 1.691-.068 0 .42.102 2.034.128 2.501-.37.031-.716.2-.965.473-.235-.41-1.019-1.792-1.18-2.102-.16-.31-.1-.499.342-.767l-.016-.037zM6.503 15.73c.288-.263.97-.946 1.195-.363l1.13 2.27c-.244.094-.462.246-.634.442-.33-.242-1.536-1.156-1.867-1.445-.33-.289-.09-.61.192-.878l-.016-.026zm-.395 1.088c.41.263 1.691 1.23 1.942 1.414-.276.243-.44.586-.453.95l-2.262-.987c-.587-.22.197-1.719.805-1.34l-.032-.037zM4.566 19.07s.123-.672.63-.614c.809.274 1.596.604 2.358.988-.077.203-.106.42-.086.635v.29l-2.533-.332c-.534-.052-.363-.924-.363-.924l-.006-.043zm0 2.013c0-.173-.064-.772.406-.772.47 0 2.016.173 2.54.226 0 .583.143 1.05.453 1.182-.534 0-2.668.074-2.966.058-.3-.016-.395-.484-.38-.657l-.053-.037zm.406 1.824c-.101-.258-.192-.704.085-.757.278-.052 3.02-.215 3.02-.215-.112.068-.176.23 0 .614.089.155.243.263.421.295 0 0-2.46.462-2.865.462-.261.011-.502-.137-.608-.373l-.053-.026zm1.019 1.466c-.315-.326-.315-.757-.054-.83.262-.074 2.737-.42 2.78-.42-.192.1-.16.294.042.567.123.238.376.382.646.368l-2.598.446c-.254.099-.54.07-.768-.078l-.048-.053zm.784 1.114c-.16-.205-.421-.583-.144-.641l2.907-.641c-.112.126-.101.32.171.736.076.122.193.215.33.262-.442.095-2.09.452-2.336.494-.303.057-.617-.009-.87-.184l-.058-.026zm.843 1.083c-.278-.484.101-.615.101-.615.427-.11 2.54-.526 2.732-.557-.075.131-.086.33.16.615.152.147.363.22.576.2 0 0-2.171.493-2.534.525-.363.031-.688.326-.976-.158l-.06-.01zm.917.983c-.085-.19-.282-.416.16-.526.443-.11 2.305-.526 2.604-.6-.018.135.014.272.09.385.139.215.364.363.62.404 0 0-2.167.578-2.519.636-.315.075-.646-.026-.864-.263l-.09-.036zm.843 1.192c-.23-.194-.272-.593.214-.725.485-.131 2.406-.557 2.747-.64-.112.202-.112.448 0 .65.109.18.28.314.48.38-.82.219-1.652.394-2.491.525-.534.084-.619.036-.848-.158l-.102-.032zm.758 1.157c-.144-.216-.272-.642.074-.715l2.732-.526c.022.424.313.788.725.91 0 0-2.41.525-2.747.557-.25.053-.51-.01-.704-.174l-.08-.052zm.475 1.103c-.061-.14-.047-.302.037-.43.081-.132.223-.217.379-.227l2.72-.551c-.261.635.416 1.077.416 1.077l-2.747.567c-.292-.004-.56-.157-.71-.404l-.095-.032zm.432 1.24c-.046-.112-.043-.237.006-.348.049-.11.14-.197.255-.24l2.982-.6c-.384.526.182 1.115.182 1.115s-2.294.468-2.668.494c-.29.021-.563-.135-.688-.394l-.07-.027zm.314 1.183c-.042-.4.22-.526.534-.583.49-.063 2.47-.416 2.47-.416-.198.894.235 1.051.235 1.051-.832.247-1.678.442-2.534.584-.318-.057-.56-.314-.593-.63l-.112-.006zm1.19.73c.534-.115 1.98-.41 1.98-.41-.534.568.143 1.183.143 1.183s-1.69.41-1.963.468c-.272.057-.795.23-.843-.368-.048-.6.267-.757.78-.841l-.097-.032zm-.176 2.775c-.155-.014-.297-.09-.395-.21-.093-.122-.131-.275-.106-.426.053-.599.533-.699 1.563-.883.42-.089.843-.157 1.27-.205-.264.342-.22.825.1 1.115l-2.432.61zm4.225-1.05s-.608.22-.843.283c-.235.063-.747.257-.848.079-.253-.352-.19-.836.144-1.114.555-.18 1.12-.33 1.691-.447l-.144 1.198zm.192-1.404c-.048 0-1.302.236-1.6.305-.299.068-.411 0-.47-.379-.058-.378.064-.83.47-.83.405 0 1.413-.184 1.6-.2 0 .295 0 .6.048.925.16.147.16.221.112.216l-.16-.037zm.299.12c-.112-4.697-1.387-6.521-1.98-7.446-.922-1.227-1.937-2.385-3.035-3.463-.784-.83-2.016-1.808-1.883-2.88-.006-.32.118-.628.343-.857.225-.23.533-.362.857-.368.47-.047.944-.047 1.414 0 .107 1.24 2.982 4.489 4.353 6.885 1.371 2.396 2.534 7.289 2.534 7.289-.916-.086-1.823.239-2.47.883l-.133-.042z" transform="translate(-1160 -872) translate(1160 872) translate(0 .652) translate(.116) translate(104.633) translate(.198 .652)"/>
                            </g>
                            <path fill="#EFC319" d="M35.08 31.924c.447.007.886.128 1.275.351.41.222.746.559.968.97.459.794.459 1.775 0 2.568-.22.415-.557.755-.968.977-.787.462-1.759.462-2.545 0-.411-.221-.747-.561-.963-.977-.221-.392-.341-.835-.348-1.286-.006-.454.115-.9.348-1.287.216-.416.552-.756.963-.977.389-.216.825-.333 1.27-.339zm0 .427c-.368-.005-.73.088-1.05.27-.332.182-.61.45-.806.777-.186.333-.279.711-.267 1.093-.011.37.081.735.267 1.053.177.342.46.615.806.778.337.17.707.262 1.084.269.38.012.754-.081 1.084-.27.33-.172.6-.444.772-.777.355-.67.355-1.476 0-2.146-.175-.343-.459-.617-.806-.778-.34-.164-.709-.256-1.085-.269zm-1.12 3.585v-2.772h.963c.234-.006.468.017.696.07.145.046.27.14.353.27.076.116.116.252.116.391.001.205-.08.401-.226.544-.16.15-.363.244-.58.269.094.019.176.076.226.158.122.123.232.316.424.55l.353.543h-.58l-.231-.427c-.122-.238-.276-.459-.458-.655-.076-.076-.192-.076-.348-.076H34.4v1.17h-.458l.017-.035zm.458-1.556h.54c.189.018.379-.023.545-.117.103-.07.163-.19.156-.315-.007-.081-.033-.16-.075-.228-.044-.074-.111-.13-.192-.158-.15-.03-.306-.03-.458 0h-.51v.824l-.006-.006z" transform="translate(-1160 -872) translate(1160 872) translate(0 .652) translate(.116) translate(104.633)"/>
                        </g>
                    </g>
                </g>
                <g fill="#FFF">
                    <path d="M5.228 10.541l.337.3.117.115c.122.115.245.238.356.36.11.124.227.246.35.362.03.038.073.061.116.061h.055l.05-.023c.054-.03.11-.077.159-.123l.037-.038.085-.108c.025-.023.05-.046.068-.077l.049-.069.043-.046.037-.053.018-.031.129-.208.061-.092c.013-.015.019-.038.025-.053.012-.016.018-.039.03-.047l.044-.076.098-.185.018-.03c.012-.031.025-.054.037-.077.018-.023.03-.054.043-.085l.043-.092v-.03c.006-.031.018-.054.03-.085.007-.03.019-.054.025-.084l.037-.123v-.031c.006-.008.006-.015.006-.03l.025-.124c0-.015 0-.03.006-.046 0-.015.006-.03.006-.046v-.146c0-.015-.006-.03-.006-.046-.006-.015-.006-.03-.006-.046-.007-.015-.007-.038-.007-.054-.006-.015-.012-.038-.012-.061 0-.015-.006-.023-.006-.039-.006-.007-.006-.023-.006-.03l-.012-.023-.025-.092c-.006-.031-.018-.062-.03-.093-.025-.076-.056-.146-.093-.207l-.073-.123-.098-.146-.13-.153-.14-.146-.037-.031c-.03-.03-.062-.061-.098-.084L6.89 8.03l-.06-.054-.038-.03-.03-.024c-.013-.015-.025-.023-.037-.023l-.03-.023-.056-.03-.019-.016h-.018c-.049-.015-.098.015-.123.07-.006.007-.006.015-.006.022l-1.258 2.396c-.018.039-.03.077-.036.123.006.039.018.07.036.092l.013.008zM7.768 10.44c.006.038.018.076.037.107.214.16.417.344.607.544.184.199.374.39.564.582l.074.053c.03.016.067.016.098.008.049-.023.098-.046.141-.077.068-.06.135-.13.19-.206.117-.138.221-.284.32-.437.091-.153.19-.322.281-.498.105-.2.19-.414.24-.643.049-.192.049-.399.006-.59-.025-.161-.074-.314-.148-.452-.073-.13-.153-.26-.245-.376-.092-.122-.202-.222-.313-.314l-.331-.26c-.037-.03-.074-.046-.116-.054-.037-.007-.074.023-.117.085l-1.251 2.405c-.019.038-.031.077-.037.122zM25.853 10.446c-.027-.013-.06-.013-.087-.007-.046.02-.086.059-.113.098-.12.24-.26.462-.432.67-.173.202-.313.313-.433.339-.12.02-.24.006-.352-.04-.034-.012-.074-.012-.107-.006-.027.007-.053.033-.08.078-.412.684-.818.983-1.224.898-.38-.045-.759.066-1.045.313-.393.319-.745.586-1.065.807-.293.208-.605.39-.925.553-.28.15-.579.26-.885.345-.326.092-.659.15-.991.176H17.7l.133-.325c.014-.04.007-.091-.02-.124-.026-.033-.066-.052-.106-.059-.053-.006-.1.007-.147.033-.06.033-.113.085-.146.143-.226.306-.626.586-1.211.853-.586.267-1.338.514-2.283.755-.505.137-1.064.254-1.663.358-.6.104-1.218.189-1.864.26-.645.072-1.297.111-1.97.144-.671.032-1.33.039-1.982.026-2.19-.026-3.82-.26-4.885-.703-.426-.183-.685-.47-.778-.847-.04-.156-.074-.306-.1-.455-.014-.098-.047-.196-.093-.28-.034-.059-.067-.078-.1-.072-.033.007-.073.046-.1.098-.033.071-.06.15-.073.228-.02.136-.053.286-.08.455-.073.404-.127.808-.166 1.205-.04.306-.06.618-.067.93 0 .554.18.99.546 1.309.406.416 1.084.69 2.036.84.586.084 1.424.123 2.515.123h.34c.399-.006.832-.026 1.29-.052.46-.026.92-.065 1.372-.11l1.277-.13c.406-.046.759-.092 1.045-.137.532-.079 1.091-.176 1.684-.3.592-.13 1.177-.3 1.743-.52.566-.215 1.098-.489 1.597-.827.493-.332.919-.755 1.251-1.244.054-.084.113-.162.173-.24l.127-.137.066-.072.04-.026.133-.058c.06-.013.127-.02.187-.02.093 0 .186.007.28.026l.405.078c0 .007 0 .007.007.007.246.078.492.176.725.286.286.137.612.065.978-.215.42-.364.859-.774 1.325-1.23.073-.065.192-.17.372-.306.16-.137.373-.195.586-.176.372.033.685-.052.931-.247.247-.202.473-.43.673-.677.18-.02.352-.085.499-.195.166-.104.312-.222.445-.365.56-.573.979-1.263 1.218-2.018.02-.045.027-.09.027-.136 0-.033-.013-.059-.04-.078zM28.392 7.826c-.05 0-.114.102-.2.3l-.996 2.397c-.142.395-.235.797-.284 1.214-.064.468-.114 1.038-.143 1.717-.028.68-.07 1.185-.114 1.528-.042.344-.07.738-.113 1.14-.043.402-.1.797-.157 1.177-.057.38-.121.739-.192 1.075-.064.285-.143.563-.235.833-.071.234-.085.358-.036.358.171-.029.392-.321.676-.884.292-.585.534-1.192.734-1.82.213-.658.37-1.491.47-2.507.035-.337.07-.71.106-1.126.036-.417.064-.855.093-1.294.028-.439.064-.87.106-1.286.043-.417.079-.797.114-1.133.029-.19.064-.454.114-.79.028-.241.078-.475.135-.709.029-.124.007-.19-.078-.19zM31.561 12.35c-.19-.16-.393-.306-.602-.438-.19-.113-.326-.173-.412-.173-.086 0-.166.113-.277.338-.73 1.52-1.087 2.31-1.069 2.382l.068.014.221.066c-.123.192-.264.438-.436.723s-.308.59-.412.909c-.098.285-.154.584-.16.889 0 .803.338 1.2 1.008 1.2.43 0 .842-.172 1.161-.483.338-.319.676-.783 1.008-1.394.222-.404.4-.842.517-1.293.122-.418.184-.85.19-1.288-.025-.305-.117-.597-.27-.855-.148-.226-.332-.432-.535-.597zm-.768 4.1c-.27.166-.523.252-.768.252-.535 0-.8-.22-.8-.657 0-.226.111-.51.333-.85.22-.338.38-.504.467-.504.16.034.32.093.454.193.148.086.29.192.418.312.197.159.308.411.301.676 0 .213-.135.405-.405.578zM36.666 12.444c-.238-.25-.484-.472-.723-.687-.051-.034-.097-.02-.135.054-.046.087-.084.175-.123.262l-.575 1.342-.406.977c-.013.02-.02.048-.013.075 0 .02.019.047.058.08.426.317.807.688 1.15 1.1.322.404.464.74.419.997-.045.256-.226.533-.594.95-.426.466-.898.89-1.395 1.268l-.536.431c-.052.04-.097.102-.123.169-.013.047-.013.074 0 .088.013.013.117.027.22 0 .846-.277 1.401-.479 1.66-.607.225-.101.426-.256.593-.445.149-.182.278-.37.388-.58.297-.54.542-1.105.742-1.692.181-.546.272-1.126.272-1.705 0-.506-.084-.924-.259-1.24-.168-.304-.38-.587-.62-.837zM43.971 9.2c-.046-.093-.1-.093-.152 0-.537 1.69-.816 2.596-.836 2.711-.02.108-.033.223-.027.33 0 .152.007.303.027.454.02.15.033.295.046.417.014.136 0 .273-.026.402-.027.18-.14.36-.338.54-.16.143-.332.258-.518.36-.06-.382-.199-.749-.418-1.058-.245-.338-.55-.51-.915-.51-.219 0-.445.158-.69.467-.279.352-.51.748-.683 1.172-.153.338-.292.683-.412 1.035-.06.187-.099.374-.126.568-.013.31.107.611.319.82.232.223.53.352.842.367.08.014.166.021.246.014l.298-.036c.1-.014.2-.036.299-.065.086-.028.166-.057.245-.093-.132.417-.331.798-.597 1.129-.278.366-.59.697-.935.992-.425.36-.876.697-1.333 1.006-.538.367-.783.583-.737.648h.113c.166 0 .431-.05.79-.144.344-.087.676-.194 1.008-.324.265-.086.51-.223.736-.395.172-.144.378-.424.617-.827.239-.403.544-1.071.895-2.006.08-.223.153-.453.213-.683.219-.209.424-.446.61-.69.298-.367.61-.913.935-1.647.332-.726.511-1.524.524-2.33l.027-2.286c0-.165-.013-.28-.047-.337zM43.744 23.192c-.105-.132-.228-.258-.368-.376-.14-.118-.298-.22-.456-.324-.166-.096-.333-.184-.5-.266-.052-.029-.113-.044-.174-.051-.053-.008-.105.03-.167.096l-1.875 2.41c-.035.045-.053.089-.07.133 0 .03.026.06.079.096.315.162.622.347.902.553.28.199.552.39.842.582.035.045.096.052.184.03.096-.03.184-.074.271-.118.097-.052.184-.11.272-.17.07-.044.131-.088.184-.147.14-.11.263-.229.385-.347.123-.132.246-.272.35-.412.159-.2.281-.413.369-.642.061-.192.061-.405 0-.597-.044-.162-.123-.31-.228-.45zM47.752 8.725c.035-.241.078-.475.135-.709.035-.124.007-.19-.078-.19-.086 0-.114.102-.2.3l-.988 2.397c-.142.395-.241.797-.291 1.214-.064.468-.107 1.038-.142 1.717-.036.68-.071 1.185-.114 1.528-.043.344-.07.738-.114 1.14-.042.402-.092.797-.149 1.177-.057.38-.128.739-.199 1.075-.057.285-.135.563-.234.833-.072.234-.086.358-.036.358.17-.029.398-.321.675-.884.292-.585.533-1.192.732-1.82.214-.658.37-1.491.47-2.507.042-.337.07-.71.106-1.126.036-.417.064-.855.093-1.294.028-.439.07-.87.106-1.286.036-.417.078-.797.114-1.133.028-.19.064-.454.114-.79zM55.748 7.953c.315.17.621.354.91.56l.83.583c.036.037.097.044.184.022.096-.03.184-.066.271-.11.097-.052.184-.111.271-.17.07-.044.132-.096.193-.148.131-.11.253-.228.376-.354.131-.132.245-.265.35-.413.157-.199.288-.412.367-.641.07-.192.07-.398.009-.59-.044-.162-.123-.317-.236-.45-.105-.14-.228-.265-.368-.376-.14-.118-.288-.228-.454-.324-.167-.096-.333-.192-.49-.266-.053-.03-.114-.051-.184-.059-.052 0-.105.03-.157.096l-1.88 2.419c-.035.044-.053.088-.07.132 0 .03.026.06.078.089zM59.526 13.307c-.025-.07-.089-.064-.172 0-.305.152-.661.14-1.068-.032-.408-.172-.777-.248-1.12-.229-.344.02-.694.229-1.05.635-.286.337-.554.686-.802 1.054-.299.438-.668 1.016-1.094 1.714-.427-.044-.764-.273-1.006-.698-.127-.229-.197-.489-.197-.756.026-.336.153-.768.376-1.301.07-.178.063-.28-.02-.311-.082-.032-.146.006-.21.12-.248.534-.521 1.111-.82 1.721-.267.571-.605 1.105-.993 1.6-.394.489-.859.914-1.374 1.276-.566.4-1.19.806-1.884 1.213-.171.12-.229.196-.165.222.083.025.172.038.255.025.604-.101 1.164-.216 1.686-.336.521-.12.922-.47 1.342-.99.223-.286.433-.578.617-.89.051.4.198.788.433 1.118.28.368.713.584 1.31.641.726.083 1.343-.013 1.852-.286.503-.266.942-.634 1.305-1.073.369-.45.706-.92 1.011-1.415.312-.508.618-.959.917-1.359l.21-.241.21-.203c.089-.077.184-.248.28-.496.07-.171.127-.342.178-.52.031-.064.025-.14-.007-.203zm-3.137 2.742c-.61.299-1.151.432-1.622.413.229-.387.522-.838.878-1.346.356-.508.655-.813.897-.901.242-.09.426-.07.706 0 .28.063.548.165.802.304-.496.724-1.05 1.238-1.66 1.53zM68.695 7.953c.315.17.613.354.902.553.28.2.552.398.842.59.035.037.096.044.184.022.096-.03.184-.066.271-.11l.272-.17c.07-.044.131-.096.184-.148l.385-.354c.132-.132.246-.265.342-.413.167-.191.298-.412.377-.641.061-.192.061-.406 0-.597-.044-.162-.123-.31-.228-.45-.105-.133-.228-.258-.368-.376-.14-.11-.298-.221-.455-.317-.158-.096-.325-.185-.5-.266-.053-.03-.114-.051-.175-.059-.053 0-.105.03-.167.096l-1.875 2.411c-.035.045-.052.089-.07.133 0 .037.026.066.079.096zM85.376 3.925c-.048-.032-.095 0-.129.102-.033.101-.134.286-.182.4-.047.115-.094.223-.141.325-.047.102-.101.204-.155.312-.054.108-.122.229-.19.369l-.1.216c-.04.083-.075.166-.108.248-.034.102-.061.204-.081.306-.027.127-.04.26-.047.394-.04.732-.088 1.451-.135 2.151-.047.7-.101 1.413-.162 2.125-.027.248-.081.49-.169.726-.074.222-.195.42-.357.598-.122.133-.297.312-.526.54-.256.249-.54.484-.836.694-.176.128-.365.248-.56.363.465-.465.843-.993 1.133-1.572.31-.617.458-1.107.458-1.482-.006-.223-.087-.433-.242-.598-.155-.185-.392-.274-.708-.274-.216.006-.452.089-.702.248-.398.293-.748.65-1.018 1.056.094-.203.175-.579.236-1.126.094-1.68.162-2.71.209-3.099.047-.407.128-.814.236-1.215.013-.07.013-.134 0-.204-.013-.025-.04-.038-.088-.019-.108.236-.215.458-.317.668-.1.21-.209.51-.344.878-.134.37-.195.624-.209.764l-.182 2.125c-.027.522-.1 1.044-.209 1.553-.054.305-.135.61-.243.903-.1.223-.229.452-.37.694-.075.108-.122.23-.142.356-.014.102.007.166.06.179.055.012.237-.02.345-.204l.499-.75c.27-.42.485-.7.64-.835.243-.248.513-.369.823-.369.189-.019.378.02.546.102.162.083.263.153.297.204.034.05-.094.305-.324.547-.276.312-.58.605-.91.872-.5.445-1.059.827-1.652 1.152-.216.095-.439.159-.675.203-.216.045-.438.064-.66.064.1-.3.181-.598.249-.904.067-.254.101-.509.108-.77 0-.394-.101-.712-.31-.967-.216-.248-.547-.382-.884-.369-.512 0-1.059.465-1.632 1.387-.216.344-.506.91-.87 1.7-.101.222-.148.464-.135.705-.398.153-.83.287-1.288.414-.458.127-.944.235-1.443.337-.499.102-1.005.198-1.517.274-.513.076-1.019.14-1.518.197-.499.057-.97.096-1.436.127-.465.032-.884.045-1.275.045-2.198-.02-3.837-.242-4.91-.68-.424-.185-.687-.459-.788-.828-.04-.16-.074-.306-.095-.446-.02-.095-.054-.19-.1-.28-.028-.05-.068-.076-.102-.07-.047.02-.08.058-.101.102-.034.07-.054.147-.067.223-.027.127-.054.28-.088.44-.068.394-.128.788-.169 1.183-.04.394-.06.693-.06.903 0 .541.182.967.546 1.28.411.406 1.1.68 2.063.82.56.083 1.35.12 2.367.127 2.024 0 3.878-.184 5.557-.56 1.68-.375 3.156-.91 4.418-1.616h.013l1.666-.923c.283-.089.573-.165.856-.248l.836-.229c.277-.083.533-.165.776-.26.23-.083.452-.185.668-.3l.634-.382c.438.007.87-.057 1.28-.19.385-.121.743-.3 1.073-.516.749-.515 1.376-1.17 1.834-1.934.459-.783.742-1.655.823-2.545l.263-4.105c.04-.375.068-.706.095-.986.02-.242.06-.49.121-.725.013-.051-.013-.102-.067-.121zm-8.133 10.499c-.29.178-.547.267-.783.267s-.37-.063-.627-.19c-.256-.128-.37-.274-.37-.408 0-.134.087-.33.269-.528.256-.3.573-.446.95-.446.378 0 .743.268.972.796 0 .153-.135.324-.411.509zM91.34 13.748c.34.14.53.33.58.572 0 .177-.029.355-.092.52-.078.216-.177.42-.297.616-.134.241-.296.47-.48.68-.155.183-.352.336-.571.45-.254.12-.522.203-.805.247-.712.07-1.411.223-2.075.458-.536.19-1.044.438-1.517.742-.374.248-.713.534-1.002.857-.219.242-.395.508-.537.788-.254.495-.444 1.022-.564 1.555-.113.495-.247 1.187-.41 2.076-.162.889-.275 2.114-.338 3.676-.064 1.561-.113 2.539-.127 2.939-.014.05-.036.076-.057.076-.02 0-.05-.013-.056-.044-.057-.781-.092-1.518-.12-2.229-.028-.71-.014-1.796.028-3.275.042-1.48.332-2.845.734-4.114.148-.451.325-.895.522-1.327.233-.489.523-.959.861-1.39.388-.47.833-.895 1.334-1.264.544-.406 1.15-.742 1.8-.996.614-1.099 1.073-1.829 1.376-2.197.042-.05.106-.082.17-.095.07-.02.148-.026.225-.026.078 0 .156.013.226.032.057.013.106.045.134.09-.091.126-.148.215-.17.253l.079.02c.494.094.882.196 1.15.31zM91.938 24.018c0 .014 0 .033.006.047 0 .013 0 .026.006.04v.204c-.006.013-.006.027-.006.04l-.025.106c0 .013 0 .02-.006.026v.026l-.037.106c-.006.027-.019.046-.025.073-.006.026-.019.046-.031.066 0 .007 0 .013-.006.02v.013l-.044.08c-.012.026-.025.052-.043.072-.019.02-.031.046-.044.066-.006.013-.012.02-.012.027l-.1.158-.043.066c-.012.007-.019.027-.03.04-.007.013-.013.033-.026.046l-.062.08-.13.178c-.013.013-.019.02-.019.026l-.037.047-.044.04-.05.059c-.018.026-.043.046-.068.066l-.086.092-.038.033c-.05.04-.105.08-.161.106l-.05.02h-.056c-.043 0-.087-.02-.118-.053-.124-.1-.242-.205-.353-.31-.112-.106-.236-.212-.36-.311l-.119-.1-.341-.257c-.006 0-.012 0-.012-.007-.019-.02-.031-.046-.038-.079.007-.04.019-.073.038-.106l1.279-2.068c0-.007 0-.014.006-.02.025-.046.074-.073.124-.06h.037l.056.033.031.02c.012 0 .025.007.037.02l.031.02c.013.006.025.013.031.026.025.013.05.027.069.047l.099.066c.037.02.068.046.1.072l.037.027.142.125.13.133.1.125.075.106c.037.06.068.119.093.178.018.027.025.053.03.08l.026.079c.006.007.012.013.012.02 0 .006 0 .02.006.026 0 .013.006.02.006.033-.006.02 0 .046.013.066zm-1.707-11.36c.124 0 .242-.034.347-.093.54-.655 1.205-1.19 1.95-1.56.316-.165.652-.284 1-.364.099-.02.192-.079.26-.165.074-.119.143-.25.192-.383.087-.198.156-.41.211-.621.056-.179.044-.285-.024-.318-.069-.033-.174-.033-.317.007-.497.205-1.117.595-1.862 1.17-.74.575-1.435 1.322-2.074 2.234.1.053.205.08.317.092zm4.24 11.651c-.05.198-.137.383-.242.555-.093.152-.193.298-.286.43-.1.132-.205.258-.323.377-.056.066-.124.125-.192.178-.044.026-.093.046-.143.066-.031.007-.068.007-.1-.006l-.074-.047c-.192-.165-.385-.33-.57-.502-.193-.172-.398-.33-.616-.47-.018-.026-.03-.059-.037-.092.006-.04.019-.073.037-.106l1.267-2.075c.043-.053.08-.08.118-.073.043.007.08.02.118.047l.335.224c.112.08.217.172.317.271.093.1.174.212.248.324.075.12.124.251.15.39.043.165.043.344-.007.51zM95.817 10.523l.991-2.397c.086-.198.15-.3.207-.3.057 0 .107.066.071.19-.035.124-.078.373-.128.71-.05.335-.093.599-.121.789-.036.336-.072.709-.114 1.133-.043.424-.072.847-.1 1.286-.029.439-.064.87-.1 1.294-.036.424-.064.79-.107 1.126-.1 1.016-.257 1.849-.464 2.507-.2.628-.449 1.235-.741 1.82-.278.563-.506.855-.678.884-.042 0-.028-.124.036-.358.1-.27.178-.548.235-.833.079-.336.143-.687.2-1.075.057-.387.107-.775.15-1.177s.085-.782.114-1.14c.028-.358.085-.848.114-1.528.028-.68.086-1.25.15-1.717.05-.417.142-.819.285-1.214zM102.277 10.435c.006.038.018.076.037.107.208.168.417.352.607.55.184.2.374.39.564.582l.074.054c.03.015.067.015.098 0 .049-.016.098-.039.141-.077.074-.053.135-.122.19-.206.117-.138.22-.283.32-.436.091-.153.19-.314.281-.498.11-.191.19-.405.24-.635.049-.19.049-.397.006-.596-.025-.161-.074-.314-.148-.444-.073-.138-.153-.26-.245-.375-.098-.115-.202-.222-.313-.314-.11-.091-.22-.183-.331-.26-.037-.03-.074-.053-.117-.06-.049.007-.092.037-.116.09l-1.251 2.403c-.019.03-.031.077-.037.115zM98.442 10.548c.117.092.227.192.337.3l.117.107c.123.123.245.238.356.361.11.131.227.246.35.362.03.038.073.061.116.061h.055l.05-.015c.055-.031.11-.077.159-.123l.037-.046.086-.1c.024-.023.049-.054.067-.085l.05-.061c.018-.016.03-.031.042-.054l.037-.046c0-.016.006-.023.018-.03l.13-.208.06-.093c.013-.015.02-.038.025-.053l.03-.054.044-.07.098-.184.012-.03c.013-.024.025-.054.043-.077.019-.024.03-.062.043-.093l.043-.092v-.015c.006 0 .006-.008.006-.016.013-.03.025-.053.031-.084l.025-.077.036-.123v-.03c.006-.008.006-.024.006-.031l.025-.131c0-.016 0-.03.006-.046v-.238c-.006-.016-.006-.031-.006-.047-.006-.007-.006-.03-.006-.046-.006-.015-.012-.038-.012-.061-.007-.016-.007-.03-.007-.046-.006-.008-.006-.023-.006-.031l-.012-.015-.024-.093c-.007-.038-.013-.069-.031-.1-.025-.069-.055-.138-.092-.2l-.074-.122-.098-.146c-.086-.108-.178-.208-.27-.3l-.037-.03c-.03-.04-.061-.07-.098-.093l-.098-.077c-.019-.023-.043-.038-.068-.046-.006-.015-.018-.03-.03-.03l-.031-.024-.037-.023-.03-.03-.056-.031h-.018l-.019-.016c-.049-.007-.098.023-.122.077-.006.008-.006.015-.006.023l-1.264 2.398c-.019.038-.031.077-.037.123 0 .038.012.07.037.092 0 .008.006.008.012.008zM112.361 2.323c-.105-.132-.228-.258-.368-.376-.149-.118-.298-.229-.465-.324-.157-.096-.324-.185-.49-.266-.053-.03-.114-.044-.176-.052-.052-.007-.114.023-.166.089l-1.885 2.42c-.026.043-.052.088-.061.132 0 .03.018.059.079.096.315.162.622.346.903.553.271.199.552.39.832.583.053.044.132.051.193.022.097-.03.184-.067.272-.11l.272-.17c.06-.045.122-.096.184-.148.131-.11.263-.229.385-.354.123-.125.237-.266.342-.406.167-.199.29-.413.368-.649.07-.192.07-.398.009-.59-.044-.162-.123-.31-.228-.45zM109.904 9.197l-.838 2.04c-.08.19-.129.329-.16.424-.03.11-.048.22-.048.336-.006.124-.006.256 0 .38 0 .132.006.263.006.388.006.117 0 .234-.018.35-.019.081-.05.161-.092.235-.05.095-.11.19-.172.277l-.208.27c-.06.081-.128.154-.195.22h-.006c-.147.095-.251.146-.3.146-.098 0-.196-.044-.276-.117-.06.044-.11.117-.134.198-.061.131-.129.256-.208.373-.098.146-.184.234-.257.248-.061.022-.135.015-.19-.03-.036-.036-.08-.058-.122-.065-.05 0-.14.146-.275.431-.135.286-.282.38-.46.286-.03-.022-.06-.059-.079-.096-.03-.073-.08-.087-.14-.029-.062.059-.147.19-.343.49-.196.3-.398.424-.594.358l-.526-.146c-.202.044-.391.154-.544.314-.16.169-.288.3-.38.41-.091.11-.183.212-.281.307-.16.175-.336.329-.526.453-.14.088-.398.139-.765.139-.232 0-.465-.066-.679-.176-.25-.124-.514-.182-.783-.175-.288 0-.655.139-1.101.417 0 .007 0 .007-.006.014-.49.337-.93.775-1.297 1.287-.374.526-.612.936-.722 1.228-.11.293-.104.402-.043.453.055.052.134.044.183-.014.563-.417 1.224-.6 1.879-.527h.006l.636.183c.25.059.508.073.765.044.287-.03.654-.227 1.095-.592.404-.33.783-.71 1.126-1.133.336-.417.666-.658.985-.731.152-.015.305 0 .452.029.11 0 .214-.03.306-.095.067-.051.171-.154.312-.292.135-.154.294-.278.465-.359l.33-.117c.184-.095.343-.234.484-.402.03-.036.067-.066.11-.087l.171-.059c.05-.007.153-.066.312-.183.055-.065.117-.124.178-.182l.202-.176.36-.175.325-.234c.122-.117.238-.242.349-.373l.03-.03c.19-.19.361-.394.514-.62.373-.527.68-1.12.912-1.748.104-.292.183-.6.238-.906.043-.22.068-.446.08-.673.012-.227.018-.46.018-.687 0-.227.006-.468.012-.702.006-.227.03-.453.068-.672 0-.059-.019-.117-.055-.161-.031-.051-.062-.037-.086.036zM115.133 7.826c-.05 0-.12.102-.2.3l-.995 2.397c-.142.395-.235.797-.284 1.214-.064.468-.114 1.038-.143 1.717-.028.68-.07 1.185-.113 1.528-.043.344-.071.738-.114 1.14-.043.402-.1.797-.157 1.177-.057.38-.12.739-.192 1.075-.064.285-.142.563-.234.833-.072.234-.086.358-.043.358.178-.029.398-.321.683-.884.291-.585.533-1.192.732-1.82.214-.658.37-1.491.47-2.507.035-.337.07-.71.106-1.126.036-.417.064-.855.093-1.294.028-.439.064-.87.107-1.286.042-.417.078-.797.113-1.133.022-.19.064-.454.114-.79.029-.241.078-.475.135-.709.029-.124.007-.19-.078-.19zM122.797 9.201c-.544 1.69-.823 2.596-.837 2.71-.02.109-.033.224-.026.331 0 .151.007.302.026.453.014.151.034.295.04.417.014.137.007.274-.026.403-.02.18-.133.36-.332.54-.16.143-.339.265-.525.359-.053-.389-.199-.748-.418-1.057-.239-.338-.544-.51-.916-.51-.212 0-.445.158-.69.467-.273.352-.505.747-.678 1.172-.159.337-.292.683-.411 1.035-.06.187-.1.374-.126.568-.02.309.1.618.318.82.233.222.525.352.837.366.086.014.166.022.252.014l.299-.036c.1-.014.199-.036.299-.064.08-.03.159-.058.239-.094-.127.417-.332.798-.591 1.129-.286.367-.598.697-.943.992-.425.36-.87.697-1.328 1.007-.537.366-.783.582-.737.647h.107c.172 0 .438-.05.796-.144.345-.086.677-.194 1.01-.324.265-.086.51-.223.736-.395.173-.144.379-.424.618-.827.239-.402.537-1.071.896-2.006.073-.208.146-.438.212-.683.22-.215.425-.445.611-.69.292-.366.604-.913.936-1.646.332-.726.505-1.524.518-2.33l.026-2.286c.007-.115-.006-.237-.04-.345-.053-.086-.099-.086-.152.007zM125.551 2.761c-.03-.16-.08-.314-.153-.452-.074-.138-.153-.26-.245-.375-.092-.115-.196-.222-.306-.314l-.337-.26c-.037-.032-.074-.047-.116-.054-.037-.008-.074.022-.11.084l-1.25 2.405c-.025.038-.037.077-.043.123.006.038.018.076.043.107.208.16.41.345.6.544.184.2.374.39.564.582l.073.054c.03.015.067.015.104.007l.135-.076c.067-.062.135-.13.19-.207.116-.138.22-.284.318-.437.098-.153.19-.321.282-.498.104-.199.19-.413.245-.643.043-.192.049-.398.006-.59zM121.66 3.351v-.03l.03-.123v-.046c.006-.016.006-.03.006-.046V2.96c0-.015 0-.03-.006-.046v-.046c-.006-.016-.012-.039-.012-.054-.006-.023-.006-.038-.006-.061-.006-.008-.012-.023-.012-.039 0-.015-.007-.023-.007-.03 0-.008 0-.016-.006-.024l-.024-.092-.037-.092c-.018-.077-.05-.146-.086-.207l-.074-.123-.104-.146c-.086-.107-.178-.207-.27-.3l-.03-.03-.099-.085-.098-.076-.067-.054-.037-.03-.03-.024c-.013-.015-.02-.023-.032-.023l-.036-.023-.056-.03-.018-.016h-.012c-.05-.015-.086.008-.13.07V1.4l-1.257 2.404c-.024.038-.037.076-.043.122.006.039.019.07.043.093h.006l.338.299c.037.038.08.07.116.115.123.115.246.23.356.361l.35.361c.03.038.074.061.116.061h.062l.049-.023c.055-.03.104-.076.153-.123l.043-.038.08-.107c.03-.016.05-.046.068-.077l.049-.07c.018-.007.03-.03.043-.045l.036-.054.019-.03.135-.208.055-.092.03-.054.025-.046.043-.077.098-.184.019-.03c.012-.032.024-.055.043-.078.018-.023.03-.053.036-.084l.043-.092c0-.008 0-.016.007-.016v-.015l.03-.084c.006-.031.019-.062.03-.085l.032-.123c-.007-.015-.007-.023 0-.03zM129.282 27.092c-.074-.138-.153-.26-.245-.376-.092-.115-.196-.222-.306-.314l-.337-.26c-.037-.03-.074-.046-.116-.054-.037-.008-.074.023-.11.084l-1.25 2.406c-.025.038-.037.076-.043.122.006.039.018.077.043.108.208.16.41.344.6.543.184.2.374.391.564.583l.08.053c.03.016.067.016.097.008l.135-.077c.067-.06.135-.13.19-.206.116-.138.22-.284.318-.437.098-.153.19-.322.282-.498.104-.2.19-.414.245-.644.043-.191.049-.398.006-.59-.03-.16-.08-.313-.153-.451zM126.792 27.327c.031.038.068.061.11.061.037.008.074 0 .11-.023l.031-.015.025-.023c.086-.061.159-.138.22-.23l.068-.069.048-.069.098-.138.062-.092.073-.115c.012-.008.018-.03.03-.046.007-.023.013-.038.025-.054l.061-.092c.013-.023.025-.053.043-.076l.037-.077.03-.061.025-.046.104-.192.037-.107.024-.062.019-.061c.018-.038.03-.077.036-.123.007-.038.019-.084.031-.122l.012-.062.019-.153v-.153c0-.016 0-.023-.006-.031v-.023l-.019-.146-.024-.1-.025-.091-.018-.062c-.006-.023-.019-.038-.03-.061-.044-.1-.093-.2-.148-.291l-.049-.07-.14-.183-.184-.192-.03-.03-.099-.093-.098-.076-.067-.054-.128-.092-.037-.023-.025-.023h-.018c-.03-.015-.073-.008-.098.023l-.024.03-.025.039-1.255 2.4c-.024.038-.037.084-.043.13.006.038.025.069.05.092l.177.138.159.153.061.062c.08.076.165.153.245.245l.239.245.08.085c.042.053.091.1.14.145l.061.054z" transform="translate(-1160 -872) translate(1160 872) translate(0 46)"/>
                    <path d="M130.58 24.483c-.079-.13-.158-.26-.25-.375-.098-.115-.196-.223-.306-.315l-.33-.26c-.037-.03-.08-.046-.123-.054-.037-.007-.073.023-.11.085l-1.249 2.405c-.018.038-.036.077-.042.123.006.038.024.076.042.107.215.16.417.345.606.551.184.192.367.383.563.575.019.023.05.038.074.054.03.015.067.015.098.007.049-.015.098-.046.14-.076.068-.062.129-.13.184-.207.116-.138.22-.284.318-.437.098-.153.19-.322.282-.498.104-.199.19-.413.244-.636.05-.191.05-.398.007-.597-.031-.161-.08-.314-.147-.452zM137.201 9.138c-.032-.02-.083 0-.147.057-.564.437-1.16.817-1.787 1.134-.698.353-1.37.754-2.024 1.205-.634.423-1.237.895-1.807 1.424-.512.48-.877.846-1.095 1.092 0 .014-.006.021-.013.028-.448.515-.775.959-.98 1.318-.096.162-.186.324-.263.5-.032.19.045.318.225.381.179.064.589.113 1.185.113h1.114c0 .148-.121.324-.365.535-.218.219-.455.41-.71.571-.2.148-.417.254-.654.303-.186.057-.378.085-.57.085-.257-.014-.506-.057-.75-.134-.326-.092-.66-.134-1-.113-.37.028-.736.148-1.062.338v.015c-.007-.007-.007-.007-.007-.015-.512.325-.973.74-1.358 1.24-.39.508-.64.903-.756 1.185-.115.282-.109.387-.05.437.057.049.146.042.198-.015.589-.401 1.28-.577 1.966-.507.007 0 .007 0 .007.007.224.05.467.106.73.176.205.064.41.099.621.113.622 0 1.256-.254 1.91-.761.415-.36.8-.768 1.133-1.22l1.262-1.683c.115-.141.237-.29.371-.43.135-.141.25-.29.372-.437.122-.148.237-.472.346-.853 0-.247-.103-.338-.295-.282l-.23.092c-.135.056-.27.099-.404.134-.314.091-.743.14-1.294.14-.436-.006-.743-.035-.929-.084.032-.035.064-.07.09-.113.045-.063.102-.12.16-.169.378-.472 1.006-.951 1.883-1.451.878-.5 1.736-.98 2.575-1.438.314-.183.564-.331.743-.458.205-.134.385-.303.532-.507.23-.282.448-.592.64-.91.18-.303.34-.606.5-.916.026-.07.026-.112-.013-.127zM135.893 2.77c.06.2.06.406-.01.597-.078.229-.2.45-.367.641-.105.148-.22.28-.342.413l-.385.353c-.062.052-.123.104-.193.148-.088.059-.175.11-.263.162-.079.051-.175.088-.272.118-.06.03-.14.014-.192-.022l-.833-.59c-.289-.199-.587-.383-.902-.552-.061-.03-.088-.067-.079-.096.009-.044.035-.089.062-.133L134 1.4c.035-.051.097-.088.167-.096.06.008.122.03.175.06.175.073.333.161.49.265.167.095.316.198.465.316.14.118.263.243.368.376.105.14.184.287.228.45zM140.536 1.874c.291.026.582.032.873.02.29-.013.581-.064.859-.147.31-.095.608-.222.885-.38.344-.198.668-.426.965-.68.08-.064.152-.134.225-.204l.231-.228c.073-.076.146-.134.198-.184.033-.032.08-.058.126-.07.053-.007.086.031.1.12.012.09-.02.197-.087.33-.178.33-.383.648-.601.96-.251.355-.529.686-.846.99-.568.553-1.104.96-1.613 1.226-.509.267-1.123.407-1.83.439-.31 0-.588-.007-.833-.02-.324-.019-.654-.012-.978.007-.397.013-.78.101-1.143.248-.324.133-.635.298-.932.489-.04.012-.08.012-.12.012-.032 0-.059-.012-.072-.038-.02-.025.013-.114.093-.273.158-.298.357-.572.581-.826.33-.362.7-.686 1.104-.971.39-.293.826-.521 1.295-.674.41-.12.919-.171 1.52-.146zm-2.326 8.53l.925-2.083c.08-.172.139-.26.185-.26.046 0 .1.057.073.165-.053.203-.1.406-.126.616-.046.292-.086.52-.105.686-.033.292-.073.616-.106.984l-.1 1.118c-.032.381-.059.756-.085 1.124-.027.369-.066.686-.1.978-.092.883-.237 1.607-.436 2.179-.185.546-.41 1.073-.68 1.581-.265.49-.47.743-.635.769-.04 0-.026-.108.04-.311.086-.235.159-.477.218-.724.066-.293.126-.597.179-.934.052-.337.099-.673.145-1.023.046-.349.073-.68.106-.99.033-.312.072-.737.105-1.328.033-.59.073-1.086.133-1.492.046-.362.132-.712.264-1.055z" transform="translate(-1160 -872) translate(1160 872) translate(0 46)"/>
                </g>
            </g>
        </g>
    </g>
</svg>
